<svg width="100" height="22" viewBox="0 0 100 22" fill="none" xmlns="http://www.w3.org/2000/svg">
<g filter="url(#filter0_i_2753_849)">
<path d="M36.3191 4.97003V5.93994H37.3648H38.4105V4.97003V4.00012H37.3648H36.3191V4.97003Z" fill="#673FFD"/>
</g>
<g filter="url(#filter1_i_2753_849)">
<path d="M49.2002 4.97003V5.93994H50.2459H51.2916V4.97003V4.00012H50.2459H49.2002V4.97003Z" fill="#673FFD"/>
</g>
<g filter="url(#filter2_i_2753_849)">
<path d="M78.9946 10.3952V16.7905H80.0403H81.086V15.3417L81.089 13.896L81.4679 13.4322C81.674 13.1806 81.8559 12.9715 81.868 12.9715C81.8801 12.9715 82.3075 13.8262 82.8167 14.8719L83.7442 16.7754L84.9171 16.7845C85.5597 16.7875 86.0871 16.7845 86.0871 16.7784C86.0871 16.7693 85.4385 15.5266 84.6444 14.0172C83.6502 12.1289 83.2107 11.262 83.2289 11.2348C83.4198 10.9862 85.9355 7.51577 85.9355 7.50364C85.9355 7.49152 85.4294 7.48849 84.8111 7.49152L83.6835 7.50061L82.4287 9.28888C81.7377 10.2709 81.1557 11.0984 81.1315 11.1226C81.0921 11.159 81.086 10.7195 81.086 7.58245V3.99984H80.0403H78.9946V10.3952Z" fill="#673FFD"/>
</g>
<g filter="url(#filter3_i_2753_849)">
<path d="M25.9229 10.732V16.7939L28.2355 16.7818C30.7027 16.7697 30.6845 16.7697 31.2877 16.6091C33.1517 16.1059 34.2883 14.5571 34.6369 12.0323C34.7036 11.5564 34.7308 10.1683 34.6854 9.63783C34.449 6.93421 33.2305 5.27324 31.1331 4.80647C30.5602 4.67917 30.2814 4.66704 28.0415 4.66704H25.9229V10.732ZM30.3935 6.78266C31.421 7.04939 32.0393 7.78894 32.297 9.04376C32.3606 9.35898 32.3637 9.45597 32.3637 10.5926C32.3637 11.6292 32.3546 11.8535 32.3091 12.1353C32.0515 13.6539 31.318 14.5419 30.1511 14.745C29.9571 14.7784 29.66 14.7905 29.0417 14.7905H28.1961L28.19 10.7654C28.184 8.55274 28.187 6.73113 28.193 6.71901C28.1991 6.70385 28.6416 6.69779 29.1781 6.70689C30.0419 6.71598 30.1783 6.72507 30.3935 6.78266Z" fill="#673FFD"/>
</g>
<g filter="url(#filter4_i_2753_849)">
<path d="M53.3225 10.7286V16.7905H57.0203H60.7181V15.7297V14.6689H58.1569H55.5957V9.66776V4.66666H54.4591H53.3225V10.7286Z" fill="#673FFD"/>
</g>
<g filter="url(#filter5_i_2753_849)">
<path d="M46.1875 6.1883C46.0905 6.649 45.7996 7.15215 45.4752 7.4219L45.3328 7.54314L45.06 7.45827C44.9115 7.41281 44.6751 7.35522 44.5326 7.33097C44.2083 7.27641 43.2929 7.27641 42.9868 7.33097C41.5986 7.57042 40.753 8.30997 40.4347 9.56783C40.3741 9.80121 40.365 9.91032 40.365 10.4559C40.3681 10.9954 40.3772 11.1136 40.4347 11.344C40.5772 11.9168 40.8318 12.3684 41.2198 12.7473C41.441 12.9625 41.4471 12.9716 41.3774 12.9989C40.853 13.1959 40.459 13.5232 40.262 13.9233C40.1468 14.1567 40.1104 14.3264 40.1074 14.5932C40.1074 15.1175 40.359 15.6237 40.753 15.8995L40.8409 15.9601L40.6439 16.0874C40.5378 16.1571 40.3408 16.3269 40.2074 16.4663C39.8164 16.8815 39.677 17.2513 39.677 17.8666C39.677 18.2576 39.7316 18.5183 39.877 18.8305C40.1226 19.3639 40.5499 19.7337 41.1379 19.9307C41.2925 19.9822 41.4622 19.9883 43.3051 19.9974C45.3904 20.0065 45.6116 19.9974 46.0481 19.8792C46.9725 19.6246 47.7 18.9365 47.9849 18.0485C48.2607 17.1937 48.1273 16.2147 47.6424 15.5358C47.3969 15.1903 47.0513 14.9357 46.6422 14.7993L46.3967 14.7144L44.5023 14.6993C42.6595 14.6841 42.6049 14.6811 42.5019 14.6204C42.3321 14.5204 42.2594 14.3871 42.2594 14.1688C42.2594 14.0112 42.2715 13.9627 42.3473 13.8597C42.5079 13.6354 42.5564 13.6263 43.5324 13.6051C44.4447 13.5839 44.7508 13.5475 45.1994 13.3959C46.4906 12.9655 47.1968 11.9229 47.1999 10.4407C47.1999 9.67997 46.9998 9.02225 46.6119 8.49183C46.4906 8.32816 46.4785 8.30088 46.524 8.28573C46.5543 8.27663 46.6937 8.21298 46.8361 8.14327C47.2817 7.92201 47.6363 7.51283 47.8091 7.00969C47.8818 6.79146 47.9576 6.34591 47.9576 6.11252V5.93976H47.0998H46.239L46.1875 6.1883ZM44.2962 8.93738C44.8024 9.13137 45.0812 9.65875 45.0812 10.4256C45.0812 11.0742 44.9509 11.444 44.6235 11.738C44.4326 11.9108 44.1962 12.0017 43.89 12.0229C42.9777 12.0896 42.4625 11.5228 42.4625 10.4559C42.4594 9.57389 42.7716 9.05256 43.396 8.88889C43.6203 8.8313 44.081 8.85555 44.2962 8.93738ZM45.4601 16.733C45.8844 16.8937 46.0845 17.3362 45.942 17.809C45.8784 18.0182 45.748 18.1667 45.5086 18.2819L45.3055 18.3819L43.9204 18.391C43.0171 18.397 42.4897 18.3879 42.414 18.3667C42.0836 18.2788 41.8411 17.9788 41.8138 17.6302C41.7805 17.2059 42.0048 16.8543 42.4018 16.7118C42.4928 16.6815 42.8171 16.6724 43.9022 16.6694C45.2449 16.6694 45.2934 16.6724 45.4601 16.733Z" fill="#673FFD"/>
</g>
<g filter="url(#filter6_i_2753_849)">
<path d="M65.0673 7.2914C63.1608 7.50054 62.1666 8.64928 61.8938 10.9558C61.8332 11.459 61.8453 12.9442 61.909 13.4382C62.1333 15.0992 62.7183 16.1085 63.7639 16.6298C64.6975 17.0966 66.1584 17.1269 67.1798 16.7026C67.8072 16.4389 68.3559 15.9084 68.6984 15.2265C69.2682 14.0929 69.4288 11.7166 69.0469 10.0769C68.6195 8.23403 67.5223 7.32778 65.6734 7.28837C65.4067 7.28231 65.1339 7.28534 65.0673 7.2914ZM65.8765 9.09483C66.7616 9.28275 67.0859 10.2133 67.0434 12.4259C67.0283 13.3079 66.9798 13.711 66.8404 14.1687C66.71 14.5869 66.4676 14.9294 66.2008 15.0658C65.8068 15.2659 65.2855 15.2628 64.8915 15.0537C64.5944 14.8991 64.4217 14.6597 64.2671 14.199C64.0883 13.6504 64.067 13.4443 64.067 12.1379C64.067 11.1165 64.0761 10.9134 64.1246 10.6527C64.2731 9.84651 64.5247 9.3858 64.9309 9.19182C65.1915 9.06452 65.5583 9.02815 65.8765 9.09483Z" fill="#673FFD"/>
</g>
<path d="M62.0895 10.979L62.0894 10.9794C62.0608 11.2171 62.0484 11.7028 62.0518 12.1991C62.0552 12.6947 62.0742 13.1783 62.1043 13.4124C62.324 15.0388 62.8877 15.9728 63.8518 16.4535L63.852 16.4536C64.2864 16.6708 64.8546 16.7909 65.4431 16.8034C66.0308 16.8158 66.6232 16.7204 67.1039 16.5208C67.6831 16.2772 68.1985 15.7828 68.5223 15.1381L68.5223 15.138C68.7901 14.6054 68.97 13.7582 69.033 12.8282C69.0956 11.902 69.0406 10.9182 68.855 10.1216L68.855 10.1214C68.648 9.22874 68.2841 8.58491 67.7677 8.1582C67.2519 7.73188 66.5622 7.50437 65.6692 7.48534L65.669 7.48533C65.4034 7.4793 65.1438 7.48265 65.0866 7.48747C64.1718 7.58821 63.4977 7.91066 63.0168 8.46605C62.5315 9.02653 62.2234 9.84665 62.0895 10.979ZM65.9169 8.902L65.9174 8.90211C66.1705 8.95584 66.3911 9.06488 66.5747 9.2414C66.7569 9.41649 66.8933 9.64892 66.9937 9.93602C67.1925 10.504 67.2617 11.3198 67.2404 12.4294C67.2252 13.3176 67.1762 13.7423 67.0288 14.2261L67.0288 14.2261L67.0285 14.2273C66.89 14.6718 66.6231 15.0712 66.2905 15.2412L66.29 15.2415C65.8393 15.4703 65.2506 15.467 64.7998 15.2281C64.4403 15.0408 64.2433 14.7475 64.0803 14.2616L64.0803 14.2616L64.0798 14.26C63.9879 13.9782 63.9335 13.7746 63.9039 13.4717C63.8751 13.177 63.87 12.7888 63.87 12.1379C63.87 11.1224 63.8784 10.8991 63.9309 10.6169C64.0816 9.79901 64.3486 9.25201 64.8452 9.01441C65.1506 8.86554 65.5625 8.82773 65.9169 8.902Z" stroke="#4123D0" stroke-opacity="0.1" stroke-width="0.394026"/>
<g filter="url(#filter7_i_2753_849)">
<path d="M73.5873 7.30708C72.1203 7.51015 71.2565 8.38307 70.8928 10.0349C70.6564 11.0928 70.6261 12.7052 70.814 13.8661C71.0656 15.4119 71.696 16.3485 72.7599 16.7607C73.4328 17.0244 74.4481 17.0729 75.221 16.8789C75.5393 16.8001 76.0212 16.5606 76.2576 16.3666C76.885 15.8574 77.2578 15.0057 77.3548 13.8661C77.373 13.666 77.3882 13.4508 77.3882 13.3872V13.2751L76.3364 13.2811L75.2816 13.2902L75.2604 13.657C75.2301 14.2359 75.0998 14.6845 74.8907 14.933C74.8512 14.9815 74.7452 15.0603 74.6542 15.1088C74.5087 15.1906 74.4693 15.1997 74.2057 15.1997C73.9571 15.1997 73.8935 15.1876 73.751 15.1209C73.3509 14.93 73.1327 14.545 72.9902 13.7752C72.9357 13.4933 72.9236 13.2751 72.9114 12.387C72.8932 11.217 72.9205 10.7503 73.0418 10.2198C73.2115 9.4621 73.5267 9.10747 74.0571 9.06807C74.7543 9.01958 75.1331 9.5409 75.1968 10.6411L75.215 10.9715H76.3061H77.3942L77.376 10.6442C77.3245 9.87431 77.2093 9.36511 76.9638 8.865C76.5637 8.03451 75.9454 7.56471 75.0089 7.36467C74.6573 7.29192 73.9147 7.26161 73.5873 7.30708Z" fill="#673FFD"/>
</g>
<g filter="url(#filter8_i_2753_849)">
<path d="M89.7849 7.29162C89.7425 7.29768 89.6061 7.3189 89.4818 7.33708C88.7968 7.43711 88.1846 7.76445 87.7057 8.28578C86.951 9.10414 86.5933 10.4984 86.6418 12.4261C86.6933 14.3962 87.1662 15.6601 88.1118 16.3633C88.6453 16.7573 89.2545 16.9543 90.0577 16.9937C91.3398 17.0544 92.4006 16.5906 92.9795 15.7147C93.3281 15.1903 93.5433 14.4447 93.5433 13.7506V13.4869L92.5067 13.493L91.4671 13.5021L91.4489 13.7749C91.3974 14.475 91.1519 14.9539 90.7336 15.16C90.5487 15.2509 90.5032 15.26 90.2547 15.26C89.891 15.26 89.7122 15.1964 89.4848 14.9842C89.106 14.6357 88.9029 14.0113 88.8544 13.0565L88.8362 12.6686H91.1913C93.2281 12.6686 93.5463 12.6625 93.5615 12.6231C93.5918 12.5503 93.516 10.9773 93.4675 10.6378C93.3311 9.68911 93.0826 8.96168 92.7128 8.44642C92.531 8.18879 92.1703 7.85235 91.9157 7.7008C91.6641 7.55228 91.3095 7.41892 90.9791 7.34921C90.7518 7.30071 89.9516 7.26131 89.7849 7.29162ZM90.5093 9.04958C90.7033 9.10717 90.9185 9.29509 91.0367 9.50726C91.2004 9.81035 91.3307 10.4438 91.3307 10.9409V11.1228H90.1032H88.8756V10.9924C88.8756 10.8197 88.9544 10.3044 89.0181 10.0771C89.0878 9.81641 89.2424 9.48907 89.3606 9.35571C89.6243 9.05261 90.1001 8.92531 90.5093 9.04958Z" fill="#673FFD"/>
</g>
<g filter="url(#filter9_i_2753_849)">
<path d="M98.4838 7.31876C97.9958 7.45818 97.6078 7.87645 97.3441 8.55236C97.2411 8.81908 97.1835 8.89486 97.141 8.82515C97.1319 8.81302 97.0774 8.53114 97.0137 8.19774C96.9531 7.86433 96.8986 7.5673 96.8895 7.53699C96.8743 7.48849 96.8046 7.48546 95.9953 7.48546H95.1194V12.138V16.7905H96.1802H97.238L97.2471 13.8869C97.2562 11.0044 97.2592 10.9862 97.3229 10.7498C97.426 10.3922 97.5563 10.1436 97.7624 9.92539C98.0988 9.5647 98.4353 9.45559 99.2354 9.45559H99.7265L99.7204 8.43112L99.7113 7.40969L99.4991 7.35513C99.1991 7.27935 98.6959 7.26117 98.4838 7.31876Z" fill="#673FFD"/>
</g>
<g filter="url(#filter10_i_2753_849)">
<path d="M36.3191 12.138V16.7905H37.3648H38.4105V12.138V7.48546H37.3648H36.3191V12.138Z" fill="#673FFD"/>
</g>
<g filter="url(#filter11_i_2753_849)">
<path d="M48.9099 11.6526V16.3052H49.9556H51.0013V11.6526V7.00011H49.9556H48.9099V11.6526Z" fill="#673FFD"/>
</g>
<path d="M7.30686 7.56093C7.70162 7.60893 7.90529 7.65441 8.22965 7.76306C9.25804 8.11174 10.0803 8.78383 10.6636 9.75659C10.6862 9.79449 10.6988 9.79449 10.817 9.73638C10.9553 9.66816 11.2645 9.56962 11.5562 9.5014C11.8202 9.43823 12.5896 9.43823 12.8763 9.5014C13.3389 9.60246 13.7966 9.79449 14.1838 10.0547C14.4478 10.2291 14.9004 10.6864 15.0789 10.9593C15.3153 11.3155 15.4938 11.7198 15.5969 12.1215C15.617 12.1999 15.6421 12.2226 15.8508 12.3287C16.4618 12.6395 16.9672 13.1499 17.2639 13.7588C17.5405 14.3223 17.6562 15.007 17.5707 15.5578C17.4022 16.6468 16.7963 17.5084 15.8634 17.9859C15.6145 18.1122 15.2524 18.236 14.9633 18.2916C14.7068 18.3396 3.18322 18.3396 2.99464 18.2916C2.38112 18.1325 1.98888 17.9328 1.55891 17.5589C1.18678 17.2355 0.89762 16.8186 0.698981 16.3208C0.530515 15.8989 0.505371 15.7448 0.505371 15.1409C0.507886 14.5951 0.512914 14.5471 0.636121 14.1555C0.867447 13.4228 1.48096 12.6976 2.16991 12.3414L2.37861 12.2352V11.9573C2.37861 10.7875 2.85635 9.64542 3.69113 8.8192C4.04567 8.46547 4.44294 8.16732 4.6793 8.07384C4.73461 8.0511 4.85279 7.99804 4.94331 7.95508C5.36825 7.75548 5.80827 7.62662 6.28852 7.56598C6.66317 7.51797 6.93473 7.51545 7.30686 7.56093Z" fill="white"/>
<path d="M5.723 0.0438654C5.32321 0.144932 4.97119 0.397597 4.80524 0.700795L4.7298 0.839761L4.72226 4.10925C4.71723 6.44894 4.70969 7.38885 4.68957 7.41412C4.67449 7.43181 4.57391 7.49497 4.46831 7.55309C3.78438 7.92703 3.07532 8.59407 2.60512 9.29901C2.33105 9.71085 2.07458 10.3476 1.97401 10.8655C1.94635 11.007 1.91618 11.2875 1.90863 11.4896L1.89355 11.856L1.67731 11.9949C1.40072 12.1718 0.706743 12.8591 0.533248 13.1269C0.291864 13.4958 0.11837 13.9152 0.0379085 14.3321C-0.0174086 14.605 -0.00986538 15.7875 0.0454517 16.0376C0.140999 16.4646 0.309465 16.8588 0.540791 17.2125C0.69417 17.4449 1.38312 18.1398 1.61193 18.2914C1.96395 18.5213 2.26316 18.6552 2.6529 18.7613C2.88422 18.822 2.92697 18.8245 3.80199 18.8346L4.70969 18.8472L4.70717 19.8225L4.70466 20.8003L4.78764 20.9646C4.8329 21.0555 4.89324 21.1566 4.92593 21.192C5.0265 21.3031 5.23017 21.4623 5.34584 21.5204C5.4087 21.5508 5.47659 21.5836 5.49921 21.5962C5.52184 21.6089 5.65259 21.6417 5.78837 21.672L6.0373 21.7251L13.8571 21.7175L21.677 21.7099L21.853 21.6569C22.1069 21.5811 22.3458 21.4547 22.4866 21.3208C22.6048 21.2071 22.7456 21.0353 22.7456 21.0025C22.7456 20.9949 22.7682 20.9368 22.7959 20.8761C22.8462 20.7675 22.8462 20.7043 22.8462 14.3195C22.8462 10.7746 22.8411 7.86386 22.8336 7.85123C22.826 7.84112 18.026 7.84618 18.026 7.84618C18.026 7.84618 13.226 7.85376 13.1983 7.82091C13.1732 7.79059 13.1606 3.89449 13.1606 3.89449L13.1531 0.00596556L9.53233 0.000913381C6.06999 -0.00161327 5.90404 -0.00161443 5.723 0.0438654ZM7.30708 7.56067C7.70184 7.60867 7.90551 7.65415 8.22987 7.7628C9.25826 8.11148 10.0805 8.78357 10.6638 9.75633C10.6865 9.79423 10.699 9.79423 10.8172 9.73612C10.9555 9.6679 11.2648 9.56936 11.5564 9.50114C11.8205 9.43797 12.5899 9.43797 12.8765 9.50114C13.3392 9.6022 13.7968 9.79423 14.184 10.0545C14.448 10.2288 14.9006 10.6861 15.0791 10.959C15.3155 11.3153 15.494 11.7195 15.5971 12.1213C15.6172 12.1996 15.6424 12.2223 15.8511 12.3285C16.4621 12.6392 16.9675 13.1496 17.2642 13.7586C17.5407 14.322 17.6564 15.0067 17.5709 15.5575C17.4025 16.6465 16.7965 17.5081 15.8636 17.9856C15.6147 18.112 15.2526 18.2358 14.9635 18.2914C14.707 18.3394 3.18344 18.3394 2.99486 18.2914C2.38134 18.1322 1.98909 17.9326 1.55913 17.5586C1.187 17.2352 0.897838 16.8183 0.699199 16.3206C0.530734 15.8986 0.505589 15.7445 0.505589 15.1406C0.508104 14.5949 0.513133 14.5469 0.636339 14.1552C0.867665 13.4225 1.48118 12.6974 2.17013 12.3411L2.37883 12.235V11.957C2.37883 10.7872 2.85657 9.64516 3.69135 8.81894C4.04588 8.46521 4.44316 8.16706 4.67952 8.07358C4.73483 8.05084 4.85301 7.99778 4.94353 7.95482C5.36847 7.75522 5.80849 7.62636 6.28874 7.56572C6.66339 7.51771 6.93494 7.51519 7.30708 7.56067Z" fill="#673FFD"/>
<path d="M7.80411 12.2781C7.48453 12.3887 7.27319 12.683 7.27319 13.015C7.27319 13.1659 7.28608 13.2162 7.36082 13.3596C7.44329 13.518 7.46649 13.5407 7.72679 13.7218C7.76803 13.7519 7.75772 13.8073 7.55154 14.5719C7.43041 15.0221 7.33247 15.4044 7.33247 15.4195C7.33247 15.4446 7.49484 15.4521 8.06442 15.4521H8.79636L8.67008 14.9667C8.59791 14.7026 8.49482 14.3178 8.4407 14.1141L8.34276 13.7444L8.45101 13.6815C8.88399 13.435 8.9742 12.8666 8.6443 12.4994C8.4407 12.273 8.08761 12.18 7.80411 12.2781Z" fill="#673FFD"/>
<path d="M14.3369 0.0596328C14.3293 0.072295 14.3218 1.61455 14.3167 3.49361C14.3117 6.49455 14.3142 6.90734 14.347 6.92253C14.4 6.94786 22.7237 6.93266 22.7237 6.90734C22.7237 6.89468 22.6758 6.85162 22.6177 6.80857C22.5572 6.76552 22.3452 6.59585 22.1434 6.42871C21.9415 6.2641 21.6009 5.98806 21.389 5.81333C21.1745 5.63859 20.902 5.41573 20.7809 5.3195C20.6598 5.22074 20.2511 4.88645 19.8726 4.57243C19.4941 4.25841 18.9618 3.82283 18.6893 3.60251C18.4168 3.38219 18.172 3.18213 18.1443 3.15933C18.1165 3.13401 17.9752 3.02005 17.8289 2.90103C17.5791 2.69843 17.0972 2.30337 16.8449 2.09065C16.7818 2.03746 16.6556 1.93363 16.5648 1.85766C16.474 1.78422 16.2519 1.60442 16.0753 1.45754C15.8987 1.31066 15.6186 1.08274 15.4546 0.95105C14.617 0.272357 14.4227 0.110282 14.4227 0.0925545C14.4227 0.0621653 14.352 0.0368409 14.3369 0.0596328Z" fill="#673FFD"/>
<defs>
<filter id="filter0_i_2753_849" x="36.3191" y="4" width="2.09131" height="1.93994" filterUnits="userSpaceOnUse" color-interpolation-filters="sRGB">
<feFlood flood-opacity="0" result="BackgroundImageFix"/>
<feBlend mode="normal" in="SourceGraphic" in2="BackgroundImageFix" result="shape"/>
<feColorMatrix in="SourceAlpha" type="matrix" values="0 0 0 0 0 0 0 0 0 0 0 0 0 0 0 0 0 0 127 0" result="hardAlpha"/>
<feOffset/>
<feGaussianBlur stdDeviation="0.454645"/>
<feComposite in2="hardAlpha" operator="arithmetic" k2="-1" k3="1"/>
<feColorMatrix type="matrix" values="0 0 0 0 0.254902 0 0 0 0 0.137255 0 0 0 0 0.815686 0 0 0 1 0"/>
<feBlend mode="normal" in2="shape" result="effect1_innerShadow_2753_849"/>
</filter>
<filter id="filter1_i_2753_849" x="49.2002" y="4" width="2.09131" height="1.93994" filterUnits="userSpaceOnUse" color-interpolation-filters="sRGB">
<feFlood flood-opacity="0" result="BackgroundImageFix"/>
<feBlend mode="normal" in="SourceGraphic" in2="BackgroundImageFix" result="shape"/>
<feColorMatrix in="SourceAlpha" type="matrix" values="0 0 0 0 0 0 0 0 0 0 0 0 0 0 0 0 0 0 127 0" result="hardAlpha"/>
<feOffset/>
<feGaussianBlur stdDeviation="0.454645"/>
<feComposite in2="hardAlpha" operator="arithmetic" k2="-1" k3="1"/>
<feColorMatrix type="matrix" values="0 0 0 0 0.254902 0 0 0 0 0.137255 0 0 0 0 0.815686 0 0 0 1 0"/>
<feBlend mode="normal" in2="shape" result="effect1_innerShadow_2753_849"/>
</filter>
<filter id="filter2_i_2753_849" x="78.9946" y="4" width="7.09253" height="12.7905" filterUnits="userSpaceOnUse" color-interpolation-filters="sRGB">
<feFlood flood-opacity="0" result="BackgroundImageFix"/>
<feBlend mode="normal" in="SourceGraphic" in2="BackgroundImageFix" result="shape"/>
<feColorMatrix in="SourceAlpha" type="matrix" values="0 0 0 0 0 0 0 0 0 0 0 0 0 0 0 0 0 0 127 0" result="hardAlpha"/>
<feOffset/>
<feGaussianBlur stdDeviation="0.454645"/>
<feComposite in2="hardAlpha" operator="arithmetic" k2="-1" k3="1"/>
<feColorMatrix type="matrix" values="0 0 0 0 0.254902 0 0 0 0 0.137255 0 0 0 0 0.815686 0 0 0 1 0"/>
<feBlend mode="normal" in2="shape" result="effect1_innerShadow_2753_849"/>
</filter>
<filter id="filter3_i_2753_849" x="25.9229" y="4.66699" width="8.78491" height="12.127" filterUnits="userSpaceOnUse" color-interpolation-filters="sRGB">
<feFlood flood-opacity="0" result="BackgroundImageFix"/>
<feBlend mode="normal" in="SourceGraphic" in2="BackgroundImageFix" result="shape"/>
<feColorMatrix in="SourceAlpha" type="matrix" values="0 0 0 0 0 0 0 0 0 0 0 0 0 0 0 0 0 0 127 0" result="hardAlpha"/>
<feOffset/>
<feGaussianBlur stdDeviation="0.454645"/>
<feComposite in2="hardAlpha" operator="arithmetic" k2="-1" k3="1"/>
<feColorMatrix type="matrix" values="0 0 0 0 0.254902 0 0 0 0 0.137255 0 0 0 0 0.815686 0 0 0 1 0"/>
<feBlend mode="normal" in2="shape" result="effect1_innerShadow_2753_849"/>
</filter>
<filter id="filter4_i_2753_849" x="53.3225" y="4.6665" width="7.39551" height="12.124" filterUnits="userSpaceOnUse" color-interpolation-filters="sRGB">
<feFlood flood-opacity="0" result="BackgroundImageFix"/>
<feBlend mode="normal" in="SourceGraphic" in2="BackgroundImageFix" result="shape"/>
<feColorMatrix in="SourceAlpha" type="matrix" values="0 0 0 0 0 0 0 0 0 0 0 0 0 0 0 0 0 0 127 0" result="hardAlpha"/>
<feOffset/>
<feGaussianBlur stdDeviation="0.454645"/>
<feComposite in2="hardAlpha" operator="arithmetic" k2="-1" k3="1"/>
<feColorMatrix type="matrix" values="0 0 0 0 0.254902 0 0 0 0 0.137255 0 0 0 0 0.815686 0 0 0 1 0"/>
<feBlend mode="normal" in2="shape" result="effect1_innerShadow_2753_849"/>
</filter>
<filter id="filter5_i_2753_849" x="39.677" y="5.93994" width="8.44971" height="14.0601" filterUnits="userSpaceOnUse" color-interpolation-filters="sRGB">
<feFlood flood-opacity="0" result="BackgroundImageFix"/>
<feBlend mode="normal" in="SourceGraphic" in2="BackgroundImageFix" result="shape"/>
<feColorMatrix in="SourceAlpha" type="matrix" values="0 0 0 0 0 0 0 0 0 0 0 0 0 0 0 0 0 0 127 0" result="hardAlpha"/>
<feOffset/>
<feGaussianBlur stdDeviation="0.454645"/>
<feComposite in2="hardAlpha" operator="arithmetic" k2="-1" k3="1"/>
<feColorMatrix type="matrix" values="0 0 0 0 0.254902 0 0 0 0 0.137255 0 0 0 0 0.815686 0 0 0 1 0"/>
<feBlend mode="normal" in2="shape" result="effect1_innerShadow_2753_849"/>
</filter>
<filter id="filter6_i_2753_849" x="61.8542" y="7.28516" width="7.40039" height="9.71631" filterUnits="userSpaceOnUse" color-interpolation-filters="sRGB">
<feFlood flood-opacity="0" result="BackgroundImageFix"/>
<feBlend mode="normal" in="SourceGraphic" in2="BackgroundImageFix" result="shape"/>
<feColorMatrix in="SourceAlpha" type="matrix" values="0 0 0 0 0 0 0 0 0 0 0 0 0 0 0 0 0 0 127 0" result="hardAlpha"/>
<feOffset/>
<feGaussianBlur stdDeviation="0.454645"/>
<feComposite in2="hardAlpha" operator="arithmetic" k2="-1" k3="1"/>
<feColorMatrix type="matrix" values="0 0 0 0 0.254902 0 0 0 0 0.137255 0 0 0 0 0.815686 0 0 0 1 0"/>
<feBlend mode="normal" in2="shape" result="effect1_innerShadow_2753_849"/>
</filter>
<filter id="filter7_i_2753_849" x="70.6917" y="7.28564" width="6.70264" height="9.71143" filterUnits="userSpaceOnUse" color-interpolation-filters="sRGB">
<feFlood flood-opacity="0" result="BackgroundImageFix"/>
<feBlend mode="normal" in="SourceGraphic" in2="BackgroundImageFix" result="shape"/>
<feColorMatrix in="SourceAlpha" type="matrix" values="0 0 0 0 0 0 0 0 0 0 0 0 0 0 0 0 0 0 127 0" result="hardAlpha"/>
<feOffset/>
<feGaussianBlur stdDeviation="0.454645"/>
<feComposite in2="hardAlpha" operator="arithmetic" k2="-1" k3="1"/>
<feColorMatrix type="matrix" values="0 0 0 0 0.254902 0 0 0 0 0.137255 0 0 0 0 0.815686 0 0 0 1 0"/>
<feBlend mode="normal" in2="shape" result="effect1_innerShadow_2753_849"/>
</filter>
<filter id="filter8_i_2753_849" x="86.6375" y="7.28076" width="6.93091" height="9.71826" filterUnits="userSpaceOnUse" color-interpolation-filters="sRGB">
<feFlood flood-opacity="0" result="BackgroundImageFix"/>
<feBlend mode="normal" in="SourceGraphic" in2="BackgroundImageFix" result="shape"/>
<feColorMatrix in="SourceAlpha" type="matrix" values="0 0 0 0 0 0 0 0 0 0 0 0 0 0 0 0 0 0 127 0" result="hardAlpha"/>
<feOffset/>
<feGaussianBlur stdDeviation="0.454645"/>
<feComposite in2="hardAlpha" operator="arithmetic" k2="-1" k3="1"/>
<feColorMatrix type="matrix" values="0 0 0 0 0.254902 0 0 0 0 0.137255 0 0 0 0 0.815686 0 0 0 1 0"/>
<feBlend mode="normal" in2="shape" result="effect1_innerShadow_2753_849"/>
</filter>
<filter id="filter9_i_2753_849" x="95.1194" y="7.28467" width="4.60718" height="9.50586" filterUnits="userSpaceOnUse" color-interpolation-filters="sRGB">
<feFlood flood-opacity="0" result="BackgroundImageFix"/>
<feBlend mode="normal" in="SourceGraphic" in2="BackgroundImageFix" result="shape"/>
<feColorMatrix in="SourceAlpha" type="matrix" values="0 0 0 0 0 0 0 0 0 0 0 0 0 0 0 0 0 0 127 0" result="hardAlpha"/>
<feOffset/>
<feGaussianBlur stdDeviation="0.454645"/>
<feComposite in2="hardAlpha" operator="arithmetic" k2="-1" k3="1"/>
<feColorMatrix type="matrix" values="0 0 0 0 0.254902 0 0 0 0 0.137255 0 0 0 0 0.815686 0 0 0 1 0"/>
<feBlend mode="normal" in2="shape" result="effect1_innerShadow_2753_849"/>
</filter>
<filter id="filter10_i_2753_849" x="36.3191" y="7.48535" width="2.09131" height="9.30518" filterUnits="userSpaceOnUse" color-interpolation-filters="sRGB">
<feFlood flood-opacity="0" result="BackgroundImageFix"/>
<feBlend mode="normal" in="SourceGraphic" in2="BackgroundImageFix" result="shape"/>
<feColorMatrix in="SourceAlpha" type="matrix" values="0 0 0 0 0 0 0 0 0 0 0 0 0 0 0 0 0 0 127 0" result="hardAlpha"/>
<feOffset/>
<feGaussianBlur stdDeviation="0.454645"/>
<feComposite in2="hardAlpha" operator="arithmetic" k2="-1" k3="1"/>
<feColorMatrix type="matrix" values="0 0 0 0 0.254902 0 0 0 0 0.137255 0 0 0 0 0.815686 0 0 0 1 0"/>
<feBlend mode="normal" in2="shape" result="effect1_innerShadow_2753_849"/>
</filter>
<filter id="filter11_i_2753_849" x="48.9099" y="7" width="2.09131" height="9.30518" filterUnits="userSpaceOnUse" color-interpolation-filters="sRGB">
<feFlood flood-opacity="0" result="BackgroundImageFix"/>
<feBlend mode="normal" in="SourceGraphic" in2="BackgroundImageFix" result="shape"/>
<feColorMatrix in="SourceAlpha" type="matrix" values="0 0 0 0 0 0 0 0 0 0 0 0 0 0 0 0 0 0 127 0" result="hardAlpha"/>
<feOffset/>
<feGaussianBlur stdDeviation="0.454645"/>
<feComposite in2="hardAlpha" operator="arithmetic" k2="-1" k3="1"/>
<feColorMatrix type="matrix" values="0 0 0 0 0.254902 0 0 0 0 0.137255 0 0 0 0 0.815686 0 0 0 1 0"/>
<feBlend mode="normal" in2="shape" result="effect1_innerShadow_2753_849"/>
</filter>
</defs>
</svg>
